<svg width="87" height="93" viewBox="0 0 87 93" fill="none" xmlns="http://www.w3.org/2000/svg">
<path d="M50.2496 43.8995L51.1077 44.9849L49.9375 45.8377L48.6113 44.6748L49.2354 42.5814L51.7319 42.659L54.3063 49.4042L50.8737 46.7681M51.689 39.898L52.9929 39.4224L53.4475 40.7919L51.9247 41.6861L50.1143 40.4493L50.9599 38.1137L58.2105 37.7648L54.6271 40.1946M48.0581 37.1237L48.0058 35.7443L49.4569 35.7379L49.8421 37.4535L48.099 38.7825L46.1252 37.2614L48.0319 30.3006L49.2498 34.4384M45.6964 44.1325L44.9228 45.279L43.7451 44.4365L44.4482 42.8236L46.6443 42.7666L47.3416 45.1501L41.6821 49.6678L43.144 45.6088M44.6315 39.8065L43.2953 39.4297L43.7376 38.0561L45.4984 38.2223L46.2316 40.2804L44.166 41.676L38.0938 37.7228L42.43 37.8503M49.0014 42.3488L51.8879 42.4264L54.6964 49.9469L48.3773 44.7523L49.0014 42.3488ZM49.8193 40.5986L50.7855 37.8943L58.8504 37.5638L51.9266 41.9312L49.8193 40.5986ZM48.1502 39.1073L45.8608 37.3585L48.0367 29.6337L50.0767 37.5275L48.1502 39.1073ZM46.7943 42.4735L47.612 45.2257L41.2829 50.2042L44.3013 42.6263L46.7943 42.4735ZM46.5583 40.3318L44.1772 41.9553L37.457 37.5116L45.6417 38.0228L46.5583 40.3318Z" stroke="url(#paint0_linear_21_545)" stroke-width="14"/>
<path d="M48.2114 14V41.1531L54.7939 31.6907L48.2114 14Z" fill="url(#paint1_linear_21_545)"/>
<path d="M48.2115 14V41.1531L41.6289 32.1021L48.2115 14Z" fill="#E3ECFD"/>
<g filter="url(#filter0_d_21_545)">
<path d="M74.134 33.336L48.2151 41.1532L58.0855 44.4447L74.134 33.336Z" fill="url(#paint2_linear_21_545)"/>
<path d="M74.1298 33.3364L48.213 41.153L54.7955 31.6904L74.1298 33.3364Z" fill="#E3ECFD"/>
</g>
<g filter="url(#filter1_d_21_545)">
<path d="M64.2594 61.7237L48.2079 41.1536L48.2086 51.9191L64.2594 61.7237Z" fill="url(#paint3_linear_21_545)"/>
<path d="M64.2542 61.724L48.2074 41.1534L58.0817 44.4449L64.2542 61.724Z" fill="#E3ECFD"/>
</g>
<g filter="url(#filter2_d_21_545)">
<path d="M31.7529 61.7232L48.21 41.1532L37.5125 44.4445L31.7529 61.7232Z" fill="url(#paint4_linear_21_545)"/>
<path d="M31.7559 61.7238L48.2086 41.153L48.2085 51.8497L31.7559 61.7238Z" fill="#E3ECFD"/>
</g>
<g filter="url(#filter3_d_21_545)">
<path d="M21.8811 32.925L48.2138 41.1532L41.6267 32.1021L21.8811 32.925Z" fill="url(#paint5_linear_21_545)"/>
<path d="M21.8844 32.9248L48.2133 41.1533L37.5172 44.4443L21.8844 32.9248Z" fill="#E3ECFD"/>
</g>
<g filter="url(#filter4_d_21_545)">
<circle cx="69.05" cy="68.05" r="0.05" fill="#D9D9D9"/>
</g>
<g filter="url(#filter5_d_21_545)">
<circle cx="76.05" cy="42.05" r="0.05" fill="#D9D9D9"/>
</g>
<path d="M50.2496 43.8995L51.1077 44.9849L49.9375 45.8377L48.6113 44.6748L49.2354 42.5814L51.7319 42.659L54.3063 49.4042L50.8737 46.7681M51.689 39.898L52.9929 39.4224L53.4475 40.7919L51.9247 41.6861L50.1143 40.4493L50.9599 38.1137L58.2105 37.7648L54.6271 40.1946M48.0581 37.1237L48.0058 35.7443L49.4569 35.7379L49.8421 37.4535L48.099 38.7825L46.1252 37.2614L48.0319 30.3006L49.2498 34.4384M45.6964 44.1325L44.9228 45.279L43.7451 44.4365L44.4482 42.8236L46.6443 42.7666L47.3416 45.1501L41.6821 49.6678L43.144 45.6088M44.6315 39.8065L43.2953 39.4297L43.7376 38.0561L45.4984 38.2223L46.2316 40.2804L44.166 41.676L38.0938 37.7228L42.43 37.8503M49.0014 42.3488L51.8879 42.4264L54.6964 49.9469L48.3773 44.7523L49.0014 42.3488ZM49.8193 40.5986L50.7855 37.8943L58.8504 37.5638L51.9266 41.9312L49.8193 40.5986ZM48.1502 39.1073L45.8608 37.3585L48.0367 29.6337L50.0767 37.5275L48.1502 39.1073ZM46.7943 42.4735L47.612 45.2257L41.2829 50.2042L44.3013 42.6263L46.7943 42.4735ZM46.5583 40.3318L44.1772 41.9553L37.457 37.5116L45.6417 38.0228L46.5583 40.3318Z" stroke="url(#paint6_linear_21_545)" stroke-width="14"/>
<path d="M48.2114 14V41.1531L54.7939 31.6907L48.2114 14Z" fill="url(#paint7_linear_21_545)"/>
<path d="M48.2115 14V41.1531L41.6289 32.1021L48.2115 14Z" fill="#E3ECFD"/>
<g filter="url(#filter6_d_21_545)">
<path d="M74.134 33.336L48.2151 41.1532L58.0855 44.4447L74.134 33.336Z" fill="url(#paint8_linear_21_545)"/>
<path d="M74.1298 33.3364L48.213 41.153L54.7955 31.6904L74.1298 33.3364Z" fill="#E3ECFD"/>
</g>
<g filter="url(#filter7_d_21_545)">
<path d="M64.2594 61.7237L48.2079 41.1536L48.2086 51.9191L64.2594 61.7237Z" fill="url(#paint9_linear_21_545)"/>
<path d="M64.2542 61.724L48.2074 41.1534L58.0817 44.4449L64.2542 61.724Z" fill="#E3ECFD"/>
</g>
<g filter="url(#filter8_d_21_545)">
<path d="M31.7529 61.7232L48.21 41.1532L37.5125 44.4445L31.7529 61.7232Z" fill="url(#paint10_linear_21_545)"/>
<path d="M31.7559 61.7238L48.2086 41.153L48.2085 51.8497L31.7559 61.7238Z" fill="#E3ECFD"/>
</g>
<g filter="url(#filter9_d_21_545)">
<path d="M21.8811 32.925L48.2138 41.1532L41.6267 32.1021L21.8811 32.925Z" fill="url(#paint11_linear_21_545)"/>
<path d="M21.8844 32.9248L48.2133 41.1533L37.5172 44.4443L21.8844 32.9248Z" fill="#E3ECFD"/>
</g>
<g filter="url(#filter10_d_21_545)">
<circle cx="38.5" cy="28.5" r="0.5" fill="#FDF0C6"/>
</g>
<g filter="url(#filter11_d_21_545)">
<circle cx="58.05" cy="19.05" r="0.05" fill="#D9D9D9"/>
</g>
<g opacity="0.77" filter="url(#filter12_d_21_545)">
<g filter="url(#filter13_d_21_545)">
<rect x="38.8428" y="6.84277" width="0.421296" height="0.421296" fill="#9A9CA4"/>
</g>
<g opacity="0.64">
<path d="M38.9956 6L38.9956 6.98906L39.2354 6.64439L38.9956 6Z" fill="url(#paint12_linear_21_545)"/>
<path d="M38.9976 6V6.98906L38.7578 6.65937L38.9976 6Z" fill="#E3ECFD"/>
</g>
<g opacity="0.64" filter="url(#filter14_d_21_545)">
<path d="M39.9398 6.70425L38.9957 6.98899L39.3553 7.10888L39.9398 6.70425Z" fill="url(#paint13_linear_21_545)"/>
<path d="M39.9403 6.70432L38.9963 6.98904L39.2361 6.64437L39.9403 6.70432Z" fill="#E3ECFD"/>
</g>
<g opacity="0.64">
<path d="M39.5781 7.73875L38.9934 6.98948L38.9934 7.38161L39.5781 7.73875Z" fill="url(#paint14_linear_21_545)"/>
<path d="M39.5811 7.73868L38.9966 6.98939L39.3562 7.10928L39.5811 7.73868Z" fill="#E3ECFD"/>
</g>
<g opacity="0.64">
<path d="M38.3947 7.73846L38.9941 6.98919L38.6044 7.10908L38.3947 7.73846Z" fill="url(#paint15_linear_21_545)"/>
<path d="M38.3935 7.73858L38.9928 6.98928L38.9928 7.37891L38.3935 7.73858Z" fill="#E3ECFD"/>
</g>
<g opacity="0.64">
<path d="M38.032 6.68985L38.9911 6.98957L38.7512 6.65988L38.032 6.68985Z" fill="url(#paint16_linear_21_545)"/>
<g filter="url(#filter15_d_21_545)">
<path d="M38.0331 6.68955L38.9921 6.98927L38.6025 7.10914L38.0331 6.68955Z" fill="#E3ECFD"/>
</g>
</g>
</g>
<g filter="url(#filter16_d_21_545)">
<g filter="url(#filter17_d_21_545)">
<rect x="60.8428" y="14.8428" width="0.421296" height="0.421296" fill="#D9D9D9"/>
</g>
<path d="M60.9956 14L60.9956 14.9891L61.2354 14.6444L60.9956 14Z" fill="url(#paint17_linear_21_545)"/>
<path d="M60.9976 14V14.9891L60.7578 14.6594L60.9976 14Z" fill="#E3ECFD"/>
<g filter="url(#filter18_d_21_545)">
<path d="M61.9398 14.7042L60.9957 14.989L61.3553 15.1089L61.9398 14.7042Z" fill="url(#paint18_linear_21_545)"/>
<path d="M61.9403 14.7043L60.9963 14.989L61.2361 14.6444L61.9403 14.7043Z" fill="#E3ECFD"/>
</g>
<path d="M61.5781 15.7387L60.9934 14.9895L60.9934 15.3816L61.5781 15.7387Z" fill="url(#paint19_linear_21_545)"/>
<path d="M61.5811 15.7387L60.9966 14.9894L61.3562 15.1093L61.5811 15.7387Z" fill="#E3ECFD"/>
<path d="M60.3947 15.7385L60.9941 14.9892L60.6044 15.1091L60.3947 15.7385Z" fill="url(#paint20_linear_21_545)"/>
<path d="M60.3935 15.7386L60.9928 14.9893L60.9928 15.3789L60.3935 15.7386Z" fill="#E3ECFD"/>
<path d="M60.032 14.6899L60.9911 14.9896L60.7512 14.6599L60.032 14.6899Z" fill="url(#paint21_linear_21_545)"/>
<g filter="url(#filter19_d_21_545)">
<path d="M60.0331 14.6895L60.9921 14.9893L60.6025 15.1091L60.0331 14.6895Z" fill="#E3ECFD"/>
</g>
</g>
<g filter="url(#filter20_d_21_545)">
<g filter="url(#filter21_d_21_545)">
<rect x="49.8428" y="66.8428" width="0.421296" height="0.421296" fill="#D9D9D9"/>
</g>
<path d="M49.9956 66L49.9956 66.9891L50.2354 66.6444L49.9956 66Z" fill="url(#paint22_linear_21_545)"/>
<path d="M49.9976 66V66.9891L49.7578 66.6594L49.9976 66Z" fill="#E3ECFD"/>
<g filter="url(#filter22_d_21_545)">
<path d="M50.9398 66.7042L49.9957 66.989L50.3553 67.1089L50.9398 66.7042Z" fill="url(#paint23_linear_21_545)"/>
<path d="M50.9403 66.7043L49.9963 66.989L50.2361 66.6444L50.9403 66.7043Z" fill="#E3ECFD"/>
</g>
<path d="M50.5781 67.7387L49.9934 66.9895L49.9934 67.3816L50.5781 67.7387Z" fill="url(#paint24_linear_21_545)"/>
<path d="M50.5811 67.7387L49.9966 66.9894L50.3562 67.1093L50.5811 67.7387Z" fill="#E3ECFD"/>
<path d="M49.3947 67.7385L49.9941 66.9892L49.6044 67.1091L49.3947 67.7385Z" fill="url(#paint25_linear_21_545)"/>
<path d="M49.3935 67.7386L49.9928 66.9893L49.9928 67.3789L49.3935 67.7386Z" fill="#E3ECFD"/>
<path d="M49.032 66.6899L49.9911 66.9896L49.7512 66.6599L49.032 66.6899Z" fill="url(#paint26_linear_21_545)"/>
<g filter="url(#filter23_d_21_545)">
<path d="M49.0331 66.6895L49.9921 66.9893L49.6025 67.1091L49.0331 66.6895Z" fill="#E3ECFD"/>
</g>
</g>
<g filter="url(#filter24_d_21_545)">
<rect x="10.8438" y="41.8428" width="0.421296" height="0.421296" fill="#2D3658"/>
</g>
<g opacity="0.01" filter="url(#filter25_d_21_545)">
<path d="M10.9957 41V41.9891L11.2355 41.6444L10.9957 41Z" fill="url(#paint27_linear_21_545)"/>
<path d="M10.998 41V41.9891L10.7582 41.6594L10.998 41Z" fill="#E3ECFD"/>
<path d="M11.9403 41.7042L10.9957 41.9891L11.3558 42.1088L11.9403 41.7042Z" fill="url(#paint28_linear_21_545)"/>
<path d="M11.9403 41.7042L10.9957 41.9891L11.2355 41.6444L11.9403 41.7042Z" fill="#E3ECFD"/>
<path d="M11.5786 42.7387L10.994 41.9894L10.994 42.3816L11.5786 42.7387Z" fill="url(#paint29_linear_21_545)"/>
<path d="M11.5812 42.7386L10.9957 41.9891L11.3558 42.1088L11.5812 42.7386Z" fill="#E3ECFD"/>
<path d="M10.3944 42.7386L10.994 41.9894L10.6042 42.1092L10.3944 42.7386Z" fill="url(#paint30_linear_21_545)"/>
<path d="M10.3933 42.7386L10.9926 41.9893L10.9926 42.379L10.3933 42.7386Z" fill="#E3ECFD"/>
<path d="M10.0322 41.6898L10.9914 41.9895L10.7515 41.6599L10.0322 41.6898Z" fill="url(#paint31_linear_21_545)"/>
<path d="M10.0322 41.6898L10.9914 41.9895L10.6023 42.1092L10.0322 41.6898Z" fill="#E3ECFD"/>
</g>
<defs>
<filter id="filter0_d_21_545" x="44.2129" y="31.6904" width="33.9209" height="20.7543" filterUnits="userSpaceOnUse" color-interpolation-filters="sRGB">
<feFlood flood-opacity="0" result="BackgroundImageFix"/>
<feColorMatrix in="SourceAlpha" type="matrix" values="0 0 0 0 0 0 0 0 0 0 0 0 0 0 0 0 0 0 127 0" result="hardAlpha"/>
<feOffset dy="4"/>
<feGaussianBlur stdDeviation="2"/>
<feComposite in2="hardAlpha" operator="out"/>
<feColorMatrix type="matrix" values="0 0 0 0 0.352941 0 0 0 0 0.501961 0 0 0 0 0.8 0 0 0 1 0"/>
<feBlend mode="normal" in2="BackgroundImageFix" result="effect1_dropShadow_21_545"/>
<feBlend mode="normal" in="SourceGraphic" in2="effect1_dropShadow_21_545" result="shape"/>
</filter>
<filter id="filter1_d_21_545" x="44.207" y="41.1534" width="24.0527" height="28.5706" filterUnits="userSpaceOnUse" color-interpolation-filters="sRGB">
<feFlood flood-opacity="0" result="BackgroundImageFix"/>
<feColorMatrix in="SourceAlpha" type="matrix" values="0 0 0 0 0 0 0 0 0 0 0 0 0 0 0 0 0 0 127 0" result="hardAlpha"/>
<feOffset dy="4"/>
<feGaussianBlur stdDeviation="2"/>
<feComposite in2="hardAlpha" operator="out"/>
<feColorMatrix type="matrix" values="0 0 0 0 0.352941 0 0 0 0 0.501961 0 0 0 0 0.8 0 0 0 1 0"/>
<feBlend mode="normal" in2="BackgroundImageFix" result="effect1_dropShadow_21_545"/>
<feBlend mode="normal" in="SourceGraphic" in2="effect1_dropShadow_21_545" result="shape"/>
</filter>
<filter id="filter2_d_21_545" x="27.7529" y="41.153" width="24.457" height="28.5709" filterUnits="userSpaceOnUse" color-interpolation-filters="sRGB">
<feFlood flood-opacity="0" result="BackgroundImageFix"/>
<feColorMatrix in="SourceAlpha" type="matrix" values="0 0 0 0 0 0 0 0 0 0 0 0 0 0 0 0 0 0 127 0" result="hardAlpha"/>
<feOffset dy="4"/>
<feGaussianBlur stdDeviation="2"/>
<feComposite in2="hardAlpha" operator="out"/>
<feColorMatrix type="matrix" values="0 0 0 0 0.352941 0 0 0 0 0.501961 0 0 0 0 0.8 0 0 0 1 0"/>
<feBlend mode="normal" in2="BackgroundImageFix" result="effect1_dropShadow_21_545"/>
<feBlend mode="normal" in="SourceGraphic" in2="effect1_dropShadow_21_545" result="shape"/>
</filter>
<filter id="filter3_d_21_545" x="17.8809" y="32.1021" width="34.333" height="20.3422" filterUnits="userSpaceOnUse" color-interpolation-filters="sRGB">
<feFlood flood-opacity="0" result="BackgroundImageFix"/>
<feColorMatrix in="SourceAlpha" type="matrix" values="0 0 0 0 0 0 0 0 0 0 0 0 0 0 0 0 0 0 127 0" result="hardAlpha"/>
<feOffset dy="4"/>
<feGaussianBlur stdDeviation="2"/>
<feComposite in2="hardAlpha" operator="out"/>
<feColorMatrix type="matrix" values="0 0 0 0 0.352941 0 0 0 0 0.501961 0 0 0 0 0.8 0 0 0 1 0"/>
<feBlend mode="normal" in2="BackgroundImageFix" result="effect1_dropShadow_21_545"/>
<feBlend mode="normal" in="SourceGraphic" in2="effect1_dropShadow_21_545" result="shape"/>
</filter>
<filter id="filter4_d_21_545" x="52" y="55" width="34.0996" height="34.1" filterUnits="userSpaceOnUse" color-interpolation-filters="sRGB">
<feFlood flood-opacity="0" result="BackgroundImageFix"/>
<feColorMatrix in="SourceAlpha" type="matrix" values="0 0 0 0 0 0 0 0 0 0 0 0 0 0 0 0 0 0 127 0" result="hardAlpha"/>
<feMorphology radius="7" operator="dilate" in="SourceAlpha" result="effect1_dropShadow_21_545"/>
<feOffset dy="4"/>
<feGaussianBlur stdDeviation="5"/>
<feComposite in2="hardAlpha" operator="out"/>
<feColorMatrix type="matrix" values="0 0 0 0 1 0 0 0 0 1 0 0 0 0 1 0 0 0 0.41 0"/>
<feBlend mode="normal" in2="BackgroundImageFix" result="effect1_dropShadow_21_545"/>
<feBlend mode="normal" in="SourceGraphic" in2="effect1_dropShadow_21_545" result="shape"/>
</filter>
<filter id="filter5_d_21_545" x="69" y="39" width="14.0996" height="14.1" filterUnits="userSpaceOnUse" color-interpolation-filters="sRGB">
<feFlood flood-opacity="0" result="BackgroundImageFix"/>
<feColorMatrix in="SourceAlpha" type="matrix" values="0 0 0 0 0 0 0 0 0 0 0 0 0 0 0 0 0 0 127 0" result="hardAlpha"/>
<feMorphology radius="4" operator="dilate" in="SourceAlpha" result="effect1_dropShadow_21_545"/>
<feOffset dy="4"/>
<feGaussianBlur stdDeviation="1.5"/>
<feComposite in2="hardAlpha" operator="out"/>
<feColorMatrix type="matrix" values="0 0 0 0 0.981794 0 0 0 0 0.820796 0 0 0 0 0.754592 0 0 0 0.54 0"/>
<feBlend mode="normal" in2="BackgroundImageFix" result="effect1_dropShadow_21_545"/>
<feBlend mode="normal" in="SourceGraphic" in2="effect1_dropShadow_21_545" result="shape"/>
</filter>
<filter id="filter6_d_21_545" x="44.2129" y="31.6904" width="33.9209" height="20.7543" filterUnits="userSpaceOnUse" color-interpolation-filters="sRGB">
<feFlood flood-opacity="0" result="BackgroundImageFix"/>
<feColorMatrix in="SourceAlpha" type="matrix" values="0 0 0 0 0 0 0 0 0 0 0 0 0 0 0 0 0 0 127 0" result="hardAlpha"/>
<feOffset dy="4"/>
<feGaussianBlur stdDeviation="2"/>
<feComposite in2="hardAlpha" operator="out"/>
<feColorMatrix type="matrix" values="0 0 0 0 0.352941 0 0 0 0 0.501961 0 0 0 0 0.8 0 0 0 1 0"/>
<feBlend mode="normal" in2="BackgroundImageFix" result="effect1_dropShadow_21_545"/>
<feBlend mode="normal" in="SourceGraphic" in2="effect1_dropShadow_21_545" result="shape"/>
</filter>
<filter id="filter7_d_21_545" x="44.207" y="41.1534" width="24.0527" height="28.5706" filterUnits="userSpaceOnUse" color-interpolation-filters="sRGB">
<feFlood flood-opacity="0" result="BackgroundImageFix"/>
<feColorMatrix in="SourceAlpha" type="matrix" values="0 0 0 0 0 0 0 0 0 0 0 0 0 0 0 0 0 0 127 0" result="hardAlpha"/>
<feOffset dy="4"/>
<feGaussianBlur stdDeviation="2"/>
<feComposite in2="hardAlpha" operator="out"/>
<feColorMatrix type="matrix" values="0 0 0 0 0.352941 0 0 0 0 0.501961 0 0 0 0 0.8 0 0 0 1 0"/>
<feBlend mode="normal" in2="BackgroundImageFix" result="effect1_dropShadow_21_545"/>
<feBlend mode="normal" in="SourceGraphic" in2="effect1_dropShadow_21_545" result="shape"/>
</filter>
<filter id="filter8_d_21_545" x="27.7529" y="41.153" width="24.457" height="28.5709" filterUnits="userSpaceOnUse" color-interpolation-filters="sRGB">
<feFlood flood-opacity="0" result="BackgroundImageFix"/>
<feColorMatrix in="SourceAlpha" type="matrix" values="0 0 0 0 0 0 0 0 0 0 0 0 0 0 0 0 0 0 127 0" result="hardAlpha"/>
<feOffset dy="4"/>
<feGaussianBlur stdDeviation="2"/>
<feComposite in2="hardAlpha" operator="out"/>
<feColorMatrix type="matrix" values="0 0 0 0 0.352941 0 0 0 0 0.501961 0 0 0 0 0.8 0 0 0 1 0"/>
<feBlend mode="normal" in2="BackgroundImageFix" result="effect1_dropShadow_21_545"/>
<feBlend mode="normal" in="SourceGraphic" in2="effect1_dropShadow_21_545" result="shape"/>
</filter>
<filter id="filter9_d_21_545" x="17.8809" y="32.1021" width="34.333" height="20.3422" filterUnits="userSpaceOnUse" color-interpolation-filters="sRGB">
<feFlood flood-opacity="0" result="BackgroundImageFix"/>
<feColorMatrix in="SourceAlpha" type="matrix" values="0 0 0 0 0 0 0 0 0 0 0 0 0 0 0 0 0 0 127 0" result="hardAlpha"/>
<feOffset dy="4"/>
<feGaussianBlur stdDeviation="2"/>
<feComposite in2="hardAlpha" operator="out"/>
<feColorMatrix type="matrix" values="0 0 0 0 0.352941 0 0 0 0 0.501961 0 0 0 0 0.8 0 0 0 1 0"/>
<feBlend mode="normal" in2="BackgroundImageFix" result="effect1_dropShadow_21_545"/>
<feBlend mode="normal" in="SourceGraphic" in2="effect1_dropShadow_21_545" result="shape"/>
</filter>
<filter id="filter10_d_21_545" x="32" y="22" width="13" height="13" filterUnits="userSpaceOnUse" color-interpolation-filters="sRGB">
<feFlood flood-opacity="0" result="BackgroundImageFix"/>
<feColorMatrix in="SourceAlpha" type="matrix" values="0 0 0 0 0 0 0 0 0 0 0 0 0 0 0 0 0 0 127 0" result="hardAlpha"/>
<feMorphology radius="3" operator="dilate" in="SourceAlpha" result="effect1_dropShadow_21_545"/>
<feOffset/>
<feGaussianBlur stdDeviation="1.5"/>
<feComposite in2="hardAlpha" operator="out"/>
<feColorMatrix type="matrix" values="0 0 0 0 0.969697 0 0 0 0 0.923575 0 0 0 0 0.76739 0 0 0 1 0"/>
<feBlend mode="normal" in2="BackgroundImageFix" result="effect1_dropShadow_21_545"/>
<feBlend mode="normal" in="SourceGraphic" in2="effect1_dropShadow_21_545" result="shape"/>
</filter>
<filter id="filter11_d_21_545" x="41" y="6" width="34.0996" height="34.1" filterUnits="userSpaceOnUse" color-interpolation-filters="sRGB">
<feFlood flood-opacity="0" result="BackgroundImageFix"/>
<feColorMatrix in="SourceAlpha" type="matrix" values="0 0 0 0 0 0 0 0 0 0 0 0 0 0 0 0 0 0 127 0" result="hardAlpha"/>
<feMorphology radius="7" operator="dilate" in="SourceAlpha" result="effect1_dropShadow_21_545"/>
<feOffset dy="4"/>
<feGaussianBlur stdDeviation="5"/>
<feComposite in2="hardAlpha" operator="out"/>
<feColorMatrix type="matrix" values="0 0 0 0 1 0 0 0 0 1 0 0 0 0 1 0 0 0 0.41 0"/>
<feBlend mode="normal" in2="BackgroundImageFix" result="effect1_dropShadow_21_545"/>
<feBlend mode="normal" in="SourceGraphic" in2="effect1_dropShadow_21_545" result="shape"/>
</filter>
<filter id="filter12_d_21_545" x="28.0322" y="0" width="21.9082" height="21.7388" filterUnits="userSpaceOnUse" color-interpolation-filters="sRGB">
<feFlood flood-opacity="0" result="BackgroundImageFix"/>
<feColorMatrix in="SourceAlpha" type="matrix" values="0 0 0 0 0 0 0 0 0 0 0 0 0 0 0 0 0 0 127 0" result="hardAlpha"/>
<feOffset dy="4"/>
<feGaussianBlur stdDeviation="5"/>
<feComposite in2="hardAlpha" operator="out"/>
<feColorMatrix type="matrix" values="0 0 0 0 0 0 0 0 0 0 0 0 0 0 0 0 0 0 0.25 0"/>
<feBlend mode="normal" in2="BackgroundImageFix" result="effect1_dropShadow_21_545"/>
<feBlend mode="normal" in="SourceGraphic" in2="effect1_dropShadow_21_545" result="shape"/>
</filter>
<filter id="filter13_d_21_545" x="33.8428" y="1.84277" width="10.4209" height="10.4213" filterUnits="userSpaceOnUse" color-interpolation-filters="sRGB">
<feFlood flood-opacity="0" result="BackgroundImageFix"/>
<feColorMatrix in="SourceAlpha" type="matrix" values="0 0 0 0 0 0 0 0 0 0 0 0 0 0 0 0 0 0 127 0" result="hardAlpha"/>
<feMorphology radius="2" operator="dilate" in="SourceAlpha" result="effect1_dropShadow_21_545"/>
<feOffset/>
<feGaussianBlur stdDeviation="1.5"/>
<feComposite in2="hardAlpha" operator="out"/>
<feColorMatrix type="matrix" values="0 0 0 0 0.918556 0 0 0 0 0.896484 0 0 0 0 0.982448 0 0 0 0.68 0"/>
<feBlend mode="normal" in2="BackgroundImageFix" result="effect1_dropShadow_21_545"/>
<feBlend mode="normal" in="SourceGraphic" in2="effect1_dropShadow_21_545" result="shape"/>
</filter>
<filter id="filter14_d_21_545" x="34.9961" y="6.64441" width="8.94434" height="8.46448" filterUnits="userSpaceOnUse" color-interpolation-filters="sRGB">
<feFlood flood-opacity="0" result="BackgroundImageFix"/>
<feColorMatrix in="SourceAlpha" type="matrix" values="0 0 0 0 0 0 0 0 0 0 0 0 0 0 0 0 0 0 127 0" result="hardAlpha"/>
<feOffset dy="4"/>
<feGaussianBlur stdDeviation="2"/>
<feComposite in2="hardAlpha" operator="out"/>
<feColorMatrix type="matrix" values="0 0 0 0 0.352941 0 0 0 0 0.501961 0 0 0 0 0.8 0 0 0 1 0"/>
<feBlend mode="normal" in2="BackgroundImageFix" result="effect1_dropShadow_21_545"/>
<feBlend mode="normal" in="SourceGraphic" in2="effect1_dropShadow_21_545" result="shape"/>
</filter>
<filter id="filter15_d_21_545" x="28.0332" y="6.68958" width="20.959" height="25.4196" filterUnits="userSpaceOnUse" color-interpolation-filters="sRGB">
<feFlood flood-opacity="0" result="BackgroundImageFix"/>
<feColorMatrix in="SourceAlpha" type="matrix" values="0 0 0 0 0 0 0 0 0 0 0 0 0 0 0 0 0 0 127 0" result="hardAlpha"/>
<feOffset dy="15"/>
<feGaussianBlur stdDeviation="5"/>
<feComposite in2="hardAlpha" operator="out"/>
<feColorMatrix type="matrix" values="0 0 0 0 0.352941 0 0 0 0 0.501961 0 0 0 0 0.8 0 0 0 1 0"/>
<feBlend mode="normal" in2="BackgroundImageFix" result="effect1_dropShadow_21_545"/>
<feBlend mode="normal" in="SourceGraphic" in2="effect1_dropShadow_21_545" result="shape"/>
</filter>
<filter id="filter16_d_21_545" x="50.0322" y="8" width="21.9082" height="21.7388" filterUnits="userSpaceOnUse" color-interpolation-filters="sRGB">
<feFlood flood-opacity="0" result="BackgroundImageFix"/>
<feColorMatrix in="SourceAlpha" type="matrix" values="0 0 0 0 0 0 0 0 0 0 0 0 0 0 0 0 0 0 127 0" result="hardAlpha"/>
<feOffset dy="4"/>
<feGaussianBlur stdDeviation="5"/>
<feComposite in2="hardAlpha" operator="out"/>
<feColorMatrix type="matrix" values="0 0 0 0 0 0 0 0 0 0 0 0 0 0 0 0 0 0 0.25 0"/>
<feBlend mode="normal" in2="BackgroundImageFix" result="effect1_dropShadow_21_545"/>
<feBlend mode="normal" in="SourceGraphic" in2="effect1_dropShadow_21_545" result="shape"/>
</filter>
<filter id="filter17_d_21_545" x="55.8428" y="9.84277" width="10.4209" height="10.4213" filterUnits="userSpaceOnUse" color-interpolation-filters="sRGB">
<feFlood flood-opacity="0" result="BackgroundImageFix"/>
<feColorMatrix in="SourceAlpha" type="matrix" values="0 0 0 0 0 0 0 0 0 0 0 0 0 0 0 0 0 0 127 0" result="hardAlpha"/>
<feMorphology radius="2" operator="dilate" in="SourceAlpha" result="effect1_dropShadow_21_545"/>
<feOffset/>
<feGaussianBlur stdDeviation="1.5"/>
<feComposite in2="hardAlpha" operator="out"/>
<feColorMatrix type="matrix" values="0 0 0 0 0.918556 0 0 0 0 0.896484 0 0 0 0 0.982448 0 0 0 0.68 0"/>
<feBlend mode="normal" in2="BackgroundImageFix" result="effect1_dropShadow_21_545"/>
<feBlend mode="normal" in="SourceGraphic" in2="effect1_dropShadow_21_545" result="shape"/>
</filter>
<filter id="filter18_d_21_545" x="56.9961" y="14.6444" width="8.94434" height="8.46448" filterUnits="userSpaceOnUse" color-interpolation-filters="sRGB">
<feFlood flood-opacity="0" result="BackgroundImageFix"/>
<feColorMatrix in="SourceAlpha" type="matrix" values="0 0 0 0 0 0 0 0 0 0 0 0 0 0 0 0 0 0 127 0" result="hardAlpha"/>
<feOffset dy="4"/>
<feGaussianBlur stdDeviation="2"/>
<feComposite in2="hardAlpha" operator="out"/>
<feColorMatrix type="matrix" values="0 0 0 0 0.352941 0 0 0 0 0.501961 0 0 0 0 0.8 0 0 0 1 0"/>
<feBlend mode="normal" in2="BackgroundImageFix" result="effect1_dropShadow_21_545"/>
<feBlend mode="normal" in="SourceGraphic" in2="effect1_dropShadow_21_545" result="shape"/>
</filter>
<filter id="filter19_d_21_545" x="50.0332" y="14.6896" width="20.959" height="25.4196" filterUnits="userSpaceOnUse" color-interpolation-filters="sRGB">
<feFlood flood-opacity="0" result="BackgroundImageFix"/>
<feColorMatrix in="SourceAlpha" type="matrix" values="0 0 0 0 0 0 0 0 0 0 0 0 0 0 0 0 0 0 127 0" result="hardAlpha"/>
<feOffset dy="15"/>
<feGaussianBlur stdDeviation="5"/>
<feComposite in2="hardAlpha" operator="out"/>
<feColorMatrix type="matrix" values="0 0 0 0 0.352941 0 0 0 0 0.501961 0 0 0 0 0.8 0 0 0 1 0"/>
<feBlend mode="normal" in2="BackgroundImageFix" result="effect1_dropShadow_21_545"/>
<feBlend mode="normal" in="SourceGraphic" in2="effect1_dropShadow_21_545" result="shape"/>
</filter>
<filter id="filter20_d_21_545" x="39.0322" y="60" width="21.9082" height="21.7388" filterUnits="userSpaceOnUse" color-interpolation-filters="sRGB">
<feFlood flood-opacity="0" result="BackgroundImageFix"/>
<feColorMatrix in="SourceAlpha" type="matrix" values="0 0 0 0 0 0 0 0 0 0 0 0 0 0 0 0 0 0 127 0" result="hardAlpha"/>
<feOffset dy="4"/>
<feGaussianBlur stdDeviation="5"/>
<feComposite in2="hardAlpha" operator="out"/>
<feColorMatrix type="matrix" values="0 0 0 0 0 0 0 0 0 0 0 0 0 0 0 0 0 0 0.25 0"/>
<feBlend mode="normal" in2="BackgroundImageFix" result="effect1_dropShadow_21_545"/>
<feBlend mode="normal" in="SourceGraphic" in2="effect1_dropShadow_21_545" result="shape"/>
</filter>
<filter id="filter21_d_21_545" x="44.8428" y="61.8428" width="10.4209" height="10.4213" filterUnits="userSpaceOnUse" color-interpolation-filters="sRGB">
<feFlood flood-opacity="0" result="BackgroundImageFix"/>
<feColorMatrix in="SourceAlpha" type="matrix" values="0 0 0 0 0 0 0 0 0 0 0 0 0 0 0 0 0 0 127 0" result="hardAlpha"/>
<feMorphology radius="2" operator="dilate" in="SourceAlpha" result="effect1_dropShadow_21_545"/>
<feOffset/>
<feGaussianBlur stdDeviation="1.5"/>
<feComposite in2="hardAlpha" operator="out"/>
<feColorMatrix type="matrix" values="0 0 0 0 0.918556 0 0 0 0 0.896484 0 0 0 0 0.982448 0 0 0 0.68 0"/>
<feBlend mode="normal" in2="BackgroundImageFix" result="effect1_dropShadow_21_545"/>
<feBlend mode="normal" in="SourceGraphic" in2="effect1_dropShadow_21_545" result="shape"/>
</filter>
<filter id="filter22_d_21_545" x="45.9961" y="66.6444" width="8.94434" height="8.46448" filterUnits="userSpaceOnUse" color-interpolation-filters="sRGB">
<feFlood flood-opacity="0" result="BackgroundImageFix"/>
<feColorMatrix in="SourceAlpha" type="matrix" values="0 0 0 0 0 0 0 0 0 0 0 0 0 0 0 0 0 0 127 0" result="hardAlpha"/>
<feOffset dy="4"/>
<feGaussianBlur stdDeviation="2"/>
<feComposite in2="hardAlpha" operator="out"/>
<feColorMatrix type="matrix" values="0 0 0 0 0.352941 0 0 0 0 0.501961 0 0 0 0 0.8 0 0 0 1 0"/>
<feBlend mode="normal" in2="BackgroundImageFix" result="effect1_dropShadow_21_545"/>
<feBlend mode="normal" in="SourceGraphic" in2="effect1_dropShadow_21_545" result="shape"/>
</filter>
<filter id="filter23_d_21_545" x="39.0332" y="66.6896" width="20.959" height="25.4196" filterUnits="userSpaceOnUse" color-interpolation-filters="sRGB">
<feFlood flood-opacity="0" result="BackgroundImageFix"/>
<feColorMatrix in="SourceAlpha" type="matrix" values="0 0 0 0 0 0 0 0 0 0 0 0 0 0 0 0 0 0 127 0" result="hardAlpha"/>
<feOffset dy="15"/>
<feGaussianBlur stdDeviation="5"/>
<feComposite in2="hardAlpha" operator="out"/>
<feColorMatrix type="matrix" values="0 0 0 0 0.352941 0 0 0 0 0.501961 0 0 0 0 0.8 0 0 0 1 0"/>
<feBlend mode="normal" in2="BackgroundImageFix" result="effect1_dropShadow_21_545"/>
<feBlend mode="normal" in="SourceGraphic" in2="effect1_dropShadow_21_545" result="shape"/>
</filter>
<filter id="filter24_d_21_545" x="5.84375" y="36.8428" width="10.4209" height="10.4213" filterUnits="userSpaceOnUse" color-interpolation-filters="sRGB">
<feFlood flood-opacity="0" result="BackgroundImageFix"/>
<feColorMatrix in="SourceAlpha" type="matrix" values="0 0 0 0 0 0 0 0 0 0 0 0 0 0 0 0 0 0 127 0" result="hardAlpha"/>
<feMorphology radius="2" operator="dilate" in="SourceAlpha" result="effect1_dropShadow_21_545"/>
<feOffset/>
<feGaussianBlur stdDeviation="1.5"/>
<feComposite in2="hardAlpha" operator="out"/>
<feColorMatrix type="matrix" values="0 0 0 0 0.403594 0 0 0 0 0.488053 0 0 0 0 0.7875 0 0 0 0.53 0"/>
<feBlend mode="normal" in2="BackgroundImageFix" result="effect1_dropShadow_21_545"/>
<feBlend mode="normal" in="SourceGraphic" in2="effect1_dropShadow_21_545" result="shape"/>
</filter>
<filter id="filter25_d_21_545" x="0.0322266" y="41" width="21.9082" height="26.7386" filterUnits="userSpaceOnUse" color-interpolation-filters="sRGB">
<feFlood flood-opacity="0" result="BackgroundImageFix"/>
<feColorMatrix in="SourceAlpha" type="matrix" values="0 0 0 0 0 0 0 0 0 0 0 0 0 0 0 0 0 0 127 0" result="hardAlpha"/>
<feOffset dy="15"/>
<feGaussianBlur stdDeviation="5"/>
<feComposite in2="hardAlpha" operator="out"/>
<feColorMatrix type="matrix" values="0 0 0 0 0.352941 0 0 0 0 0.501961 0 0 0 0 0.8 0 0 0 1 0"/>
<feBlend mode="normal" in2="BackgroundImageFix" result="effect1_dropShadow_21_545"/>
<feBlend mode="normal" in="SourceGraphic" in2="effect1_dropShadow_21_545" result="shape"/>
</filter>
<linearGradient id="paint0_linear_21_545" x1="-0.337919" y1="76.2602" x2="62.2595" y2="3.27615" gradientUnits="userSpaceOnUse">
<stop offset="0.281706" stop-color="#23B2DF"/>
<stop offset="0.446714" stop-color="#18A1F4"/>
<stop offset="0.653063" stop-color="#3E87F5"/>
<stop offset="0.815631" stop-color="#8167F5"/>
<stop offset="1" stop-color="#864EE5"/>
</linearGradient>
<linearGradient id="paint1_linear_21_545" x1="51.5027" y1="14" x2="51.5027" y2="40.8547" gradientUnits="userSpaceOnUse">
<stop stop-color="#82A9F8"/>
<stop offset="0.597362" stop-color="white"/>
<stop offset="1" stop-color="#82A9F8"/>
</linearGradient>
<linearGradient id="paint2_linear_21_545" x1="75.132" y1="35.7327" x2="49.5917" y2="44.0312" gradientUnits="userSpaceOnUse">
<stop stop-color="#82A9F8"/>
<stop offset="0.597362" stop-color="white"/>
<stop offset="1" stop-color="#82A9F8"/>
</linearGradient>
<linearGradient id="paint3_linear_21_545" x1="63.196" y1="65.3251" x2="45.5778" y2="45.0577" gradientUnits="userSpaceOnUse">
<stop stop-color="#82A9F8"/>
<stop offset="0.597362" stop-color="white"/>
<stop offset="1" stop-color="#82A9F8"/>
</linearGradient>
<linearGradient id="paint4_linear_21_545" x1="28.4965" y1="61.7239" x2="43.5134" y2="39.4604" gradientUnits="userSpaceOnUse">
<stop stop-color="#82A9F8"/>
<stop offset="0.597362" stop-color="white"/>
<stop offset="1" stop-color="#82A9F8"/>
</linearGradient>
<linearGradient id="paint5_linear_21_545" x1="20.1166" y1="32.4859" x2="46.869" y2="34.8265" gradientUnits="userSpaceOnUse">
<stop stop-color="#82A9F8"/>
<stop offset="0.597362" stop-color="white"/>
<stop offset="1" stop-color="#82A9F8"/>
</linearGradient>
<linearGradient id="paint6_linear_21_545" x1="-0.337919" y1="76.2602" x2="62.2595" y2="3.27615" gradientUnits="userSpaceOnUse">
<stop offset="0.281706" stop-color="#23B2DF"/>
<stop offset="0.446714" stop-color="#18A1F4"/>
<stop offset="0.653063" stop-color="#3E87F5"/>
<stop offset="0.815631" stop-color="#8167F5"/>
<stop offset="1" stop-color="#864EE5"/>
</linearGradient>
<linearGradient id="paint7_linear_21_545" x1="51.5027" y1="14" x2="51.5027" y2="40.8547" gradientUnits="userSpaceOnUse">
<stop stop-color="#82A9F8"/>
<stop offset="0.597362" stop-color="white"/>
<stop offset="1" stop-color="#82A9F8"/>
</linearGradient>
<linearGradient id="paint8_linear_21_545" x1="75.132" y1="35.7327" x2="49.5917" y2="44.0312" gradientUnits="userSpaceOnUse">
<stop stop-color="#82A9F8"/>
<stop offset="0.597362" stop-color="white"/>
<stop offset="1" stop-color="#82A9F8"/>
</linearGradient>
<linearGradient id="paint9_linear_21_545" x1="63.196" y1="65.3251" x2="45.5778" y2="45.0577" gradientUnits="userSpaceOnUse">
<stop stop-color="#82A9F8"/>
<stop offset="0.597362" stop-color="white"/>
<stop offset="1" stop-color="#82A9F8"/>
</linearGradient>
<linearGradient id="paint10_linear_21_545" x1="28.4965" y1="61.7239" x2="43.5134" y2="39.4604" gradientUnits="userSpaceOnUse">
<stop stop-color="#82A9F8"/>
<stop offset="0.597362" stop-color="white"/>
<stop offset="1" stop-color="#82A9F8"/>
</linearGradient>
<linearGradient id="paint11_linear_21_545" x1="20.1166" y1="32.4859" x2="46.869" y2="34.8265" gradientUnits="userSpaceOnUse">
<stop stop-color="#82A9F8"/>
<stop offset="0.597362" stop-color="white"/>
<stop offset="1" stop-color="#82A9F8"/>
</linearGradient>
<linearGradient id="paint12_linear_21_545" x1="39.1155" y1="6" x2="39.1155" y2="6.97819" gradientUnits="userSpaceOnUse">
<stop stop-color="#82A9F8"/>
<stop offset="0.597362" stop-color="white"/>
<stop offset="1" stop-color="#82A9F8"/>
</linearGradient>
<linearGradient id="paint13_linear_21_545" x1="39.9762" y1="6.79155" x2="39.0459" y2="7.09382" gradientUnits="userSpaceOnUse">
<stop stop-color="#82A9F8"/>
<stop offset="0.597362" stop-color="white"/>
<stop offset="1" stop-color="#82A9F8"/>
</linearGradient>
<linearGradient id="paint14_linear_21_545" x1="39.5393" y1="7.86993" x2="38.8976" y2="7.13168" gradientUnits="userSpaceOnUse">
<stop stop-color="#82A9F8"/>
<stop offset="0.597362" stop-color="white"/>
<stop offset="1" stop-color="#82A9F8"/>
</linearGradient>
<linearGradient id="paint15_linear_21_545" x1="38.276" y1="7.73849" x2="38.823" y2="6.92753" gradientUnits="userSpaceOnUse">
<stop stop-color="#82A9F8"/>
<stop offset="0.597362" stop-color="white"/>
<stop offset="1" stop-color="#82A9F8"/>
</linearGradient>
<linearGradient id="paint16_linear_21_545" x1="37.9677" y1="6.67386" x2="38.9422" y2="6.75911" gradientUnits="userSpaceOnUse">
<stop stop-color="#82A9F8"/>
<stop offset="0.597362" stop-color="white"/>
<stop offset="1" stop-color="#82A9F8"/>
</linearGradient>
<linearGradient id="paint17_linear_21_545" x1="61.1155" y1="14" x2="61.1155" y2="14.9782" gradientUnits="userSpaceOnUse">
<stop stop-color="#82A9F8"/>
<stop offset="0.597362" stop-color="white"/>
<stop offset="1" stop-color="#82A9F8"/>
</linearGradient>
<linearGradient id="paint18_linear_21_545" x1="61.9762" y1="14.7915" x2="61.0459" y2="15.0938" gradientUnits="userSpaceOnUse">
<stop stop-color="#82A9F8"/>
<stop offset="0.597362" stop-color="white"/>
<stop offset="1" stop-color="#82A9F8"/>
</linearGradient>
<linearGradient id="paint19_linear_21_545" x1="61.5393" y1="15.8699" x2="60.8976" y2="15.1317" gradientUnits="userSpaceOnUse">
<stop stop-color="#82A9F8"/>
<stop offset="0.597362" stop-color="white"/>
<stop offset="1" stop-color="#82A9F8"/>
</linearGradient>
<linearGradient id="paint20_linear_21_545" x1="60.276" y1="15.7385" x2="60.823" y2="14.9275" gradientUnits="userSpaceOnUse">
<stop stop-color="#82A9F8"/>
<stop offset="0.597362" stop-color="white"/>
<stop offset="1" stop-color="#82A9F8"/>
</linearGradient>
<linearGradient id="paint21_linear_21_545" x1="59.9677" y1="14.6739" x2="60.9422" y2="14.7591" gradientUnits="userSpaceOnUse">
<stop stop-color="#82A9F8"/>
<stop offset="0.597362" stop-color="white"/>
<stop offset="1" stop-color="#82A9F8"/>
</linearGradient>
<linearGradient id="paint22_linear_21_545" x1="50.1155" y1="66" x2="50.1155" y2="66.9782" gradientUnits="userSpaceOnUse">
<stop stop-color="#82A9F8"/>
<stop offset="0.597362" stop-color="white"/>
<stop offset="1" stop-color="#82A9F8"/>
</linearGradient>
<linearGradient id="paint23_linear_21_545" x1="50.9762" y1="66.7915" x2="50.0459" y2="67.0938" gradientUnits="userSpaceOnUse">
<stop stop-color="#82A9F8"/>
<stop offset="0.597362" stop-color="white"/>
<stop offset="1" stop-color="#82A9F8"/>
</linearGradient>
<linearGradient id="paint24_linear_21_545" x1="50.5393" y1="67.8699" x2="49.8976" y2="67.1317" gradientUnits="userSpaceOnUse">
<stop stop-color="#82A9F8"/>
<stop offset="0.597362" stop-color="white"/>
<stop offset="1" stop-color="#82A9F8"/>
</linearGradient>
<linearGradient id="paint25_linear_21_545" x1="49.276" y1="67.7385" x2="49.823" y2="66.9275" gradientUnits="userSpaceOnUse">
<stop stop-color="#82A9F8"/>
<stop offset="0.597362" stop-color="white"/>
<stop offset="1" stop-color="#82A9F8"/>
</linearGradient>
<linearGradient id="paint26_linear_21_545" x1="48.9677" y1="66.6739" x2="49.9422" y2="66.7591" gradientUnits="userSpaceOnUse">
<stop stop-color="#82A9F8"/>
<stop offset="0.597362" stop-color="white"/>
<stop offset="1" stop-color="#82A9F8"/>
</linearGradient>
<linearGradient id="paint27_linear_21_545" x1="10.9863" y1="41" x2="10.9863" y2="42.7196" gradientUnits="userSpaceOnUse">
<stop stop-color="#82A9F8"/>
<stop offset="0.597362" stop-color="white"/>
<stop offset="1" stop-color="#82A9F8"/>
</linearGradient>
<linearGradient id="paint28_linear_21_545" x1="10.9639" y1="40.9866" x2="10.9639" y2="42.7117" gradientUnits="userSpaceOnUse">
<stop stop-color="#82A9F8"/>
<stop offset="0.597362" stop-color="white"/>
<stop offset="1" stop-color="#82A9F8"/>
</linearGradient>
<linearGradient id="paint29_linear_21_545" x1="10.712" y1="40.8652" x2="10.712" y2="42.6572" gradientUnits="userSpaceOnUse">
<stop stop-color="#82A9F8"/>
<stop offset="0.597362" stop-color="white"/>
<stop offset="1" stop-color="#82A9F8"/>
</linearGradient>
<linearGradient id="paint30_linear_21_545" x1="10.6262" y1="40.8794" x2="10.6262" y2="42.6577" gradientUnits="userSpaceOnUse">
<stop stop-color="#82A9F8"/>
<stop offset="0.597362" stop-color="white"/>
<stop offset="1" stop-color="#82A9F8"/>
</linearGradient>
<linearGradient id="paint31_linear_21_545" x1="10.5424" y1="40.8841" x2="10.5424" y2="42.6167" gradientUnits="userSpaceOnUse">
<stop stop-color="#82A9F8"/>
<stop offset="0.597362" stop-color="white"/>
<stop offset="1" stop-color="#82A9F8"/>
</linearGradient>
</defs>
</svg>
